<mxfile host="app.diagrams.net" modified="2022-04-27T20:15:28.038Z" agent="5.0 (Windows NT 10.0; Win64; x64) AppleWebKit/537.36 (KHTML, like Gecko) Chrome/100.0.4896.127 Safari/537.36" etag="XMnpnqMCv7WEmxsJ5g6p" version="17.4.6" type="github">
  <diagram id="H1HA2Nj7DjGSjI18z90N" name="Page-1">
    <mxGraphModel dx="960" dy="515" grid="1" gridSize="10" guides="1" tooltips="1" connect="1" arrows="1" fold="1" page="1" pageScale="1" pageWidth="827" pageHeight="1169" math="0" shadow="0">
      <root>
        <mxCell id="0" />
        <mxCell id="1" parent="0" />
        <mxCell id="P13N5EHRVy5XeqDzWx6y-37" value="" style="group" vertex="1" connectable="0" parent="1">
          <mxGeometry x="190" y="160" width="310" height="259" as="geometry" />
        </mxCell>
        <mxCell id="P13N5EHRVy5XeqDzWx6y-19" value="" style="rounded=1;whiteSpace=wrap;html=1;fillColor=none;direction=south;" vertex="1" parent="P13N5EHRVy5XeqDzWx6y-37">
          <mxGeometry x="260.2368421052632" y="1.5190615835777126" width="49.76315789473684" height="189.88269794721407" as="geometry" />
        </mxCell>
        <mxCell id="P13N5EHRVy5XeqDzWx6y-18" value="" style="rounded=1;whiteSpace=wrap;html=1;fillColor=none;direction=south;" vertex="1" parent="P13N5EHRVy5XeqDzWx6y-37">
          <mxGeometry x="128.89473684210526" y="1.5190615835777126" width="49.76315789473684" height="189.88269794721407" as="geometry" />
        </mxCell>
        <mxCell id="P13N5EHRVy5XeqDzWx6y-17" value="" style="rounded=1;whiteSpace=wrap;html=1;fillColor=none;direction=south;" vertex="1" parent="P13N5EHRVy5XeqDzWx6y-37">
          <mxGeometry x="65.26315789473684" width="48.94736842105263" height="189.88269794721407" as="geometry" />
        </mxCell>
        <mxCell id="P13N5EHRVy5XeqDzWx6y-12" value="" style="rounded=1;whiteSpace=wrap;html=1;fillColor=none;direction=south;" vertex="1" parent="P13N5EHRVy5XeqDzWx6y-37">
          <mxGeometry y="0.7595307917888563" width="48.94736842105263" height="189.88269794721407" as="geometry" />
        </mxCell>
        <mxCell id="P13N5EHRVy5XeqDzWx6y-1" value="h1" style="rounded=0;whiteSpace=wrap;html=1;" vertex="1" parent="P13N5EHRVy5XeqDzWx6y-37">
          <mxGeometry x="4.078947368421052" y="122.28445747800586" width="40.78947368421053" height="60.76246334310851" as="geometry" />
        </mxCell>
        <mxCell id="P13N5EHRVy5XeqDzWx6y-2" value="h2" style="rounded=0;whiteSpace=wrap;html=1;" vertex="1" parent="P13N5EHRVy5XeqDzWx6y-37">
          <mxGeometry x="69.34210526315789" y="122.28445747800586" width="40.78947368421053" height="60.76246334310851" as="geometry" />
        </mxCell>
        <mxCell id="P13N5EHRVy5XeqDzWx6y-3" value="h3" style="rounded=0;whiteSpace=wrap;html=1;" vertex="1" parent="P13N5EHRVy5XeqDzWx6y-37">
          <mxGeometry x="134.60526315789474" y="122.28445747800586" width="40.78947368421053" height="60.76246334310851" as="geometry" />
        </mxCell>
        <mxCell id="P13N5EHRVy5XeqDzWx6y-4" value="hn" style="rounded=0;whiteSpace=wrap;html=1;" vertex="1" parent="P13N5EHRVy5XeqDzWx6y-37">
          <mxGeometry x="265.13157894736844" y="122.28445747800586" width="40.78947368421053" height="60.76246334310851" as="geometry" />
        </mxCell>
        <mxCell id="P13N5EHRVy5XeqDzWx6y-5" value="" style="ellipse;whiteSpace=wrap;html=1;aspect=fixed;fillColor=#000000;" vertex="1" parent="P13N5EHRVy5XeqDzWx6y-37">
          <mxGeometry x="211.28947368421052" y="151.1466275659824" width="2.2785923753665687" height="2.2785923753665687" as="geometry" />
        </mxCell>
        <mxCell id="P13N5EHRVy5XeqDzWx6y-6" value="" style="ellipse;whiteSpace=wrap;html=1;aspect=fixed;fillColor=#000000;" vertex="1" parent="P13N5EHRVy5XeqDzWx6y-37">
          <mxGeometry x="220.26315789473685" y="151.1466275659824" width="2.2785923753665687" height="2.2785923753665687" as="geometry" />
        </mxCell>
        <mxCell id="P13N5EHRVy5XeqDzWx6y-7" value="" style="ellipse;whiteSpace=wrap;html=1;aspect=fixed;fillColor=#000000;" vertex="1" parent="P13N5EHRVy5XeqDzWx6y-37">
          <mxGeometry x="229.23684210526315" y="151.1466275659824" width="2.2785923753665687" height="2.2785923753665687" as="geometry" />
        </mxCell>
        <mxCell id="P13N5EHRVy5XeqDzWx6y-8" value="" style="endArrow=classic;html=1;rounded=0;exitX=1;exitY=0.5;exitDx=0;exitDy=0;entryX=0;entryY=0.5;entryDx=0;entryDy=0;" edge="1" parent="P13N5EHRVy5XeqDzWx6y-37" source="P13N5EHRVy5XeqDzWx6y-1" target="P13N5EHRVy5XeqDzWx6y-2">
          <mxGeometry width="50" height="50" relative="1" as="geometry">
            <mxPoint x="175.39473684210526" y="91.90322580645162" as="sourcePoint" />
            <mxPoint x="216.18421052631578" y="53.9266862170088" as="targetPoint" />
          </mxGeometry>
        </mxCell>
        <mxCell id="P13N5EHRVy5XeqDzWx6y-9" value="" style="endArrow=classic;html=1;rounded=0;exitX=1;exitY=0.5;exitDx=0;exitDy=0;entryX=0;entryY=0.5;entryDx=0;entryDy=0;" edge="1" parent="P13N5EHRVy5XeqDzWx6y-37" source="P13N5EHRVy5XeqDzWx6y-2" target="P13N5EHRVy5XeqDzWx6y-3">
          <mxGeometry width="50" height="50" relative="1" as="geometry">
            <mxPoint x="53.026315789473685" y="160.26099706744867" as="sourcePoint" />
            <mxPoint x="77.5" y="160.26099706744867" as="targetPoint" />
          </mxGeometry>
        </mxCell>
        <mxCell id="P13N5EHRVy5XeqDzWx6y-10" value="" style="endArrow=classic;html=1;rounded=0;exitX=1;exitY=0.5;exitDx=0;exitDy=0;" edge="1" parent="P13N5EHRVy5XeqDzWx6y-37" source="P13N5EHRVy5XeqDzWx6y-3">
          <mxGeometry width="50" height="50" relative="1" as="geometry">
            <mxPoint x="118.28947368421052" y="160.26099706744867" as="sourcePoint" />
            <mxPoint x="199.86842105263156" y="152.6656891495601" as="targetPoint" />
          </mxGeometry>
        </mxCell>
        <mxCell id="P13N5EHRVy5XeqDzWx6y-11" value="" style="endArrow=classic;html=1;rounded=0;exitX=1;exitY=0.5;exitDx=0;exitDy=0;entryX=0;entryY=0.5;entryDx=0;entryDy=0;" edge="1" parent="P13N5EHRVy5XeqDzWx6y-37">
          <mxGeometry width="50" height="50" relative="1" as="geometry">
            <mxPoint x="240.6578947368421" y="151.90615835777126" as="sourcePoint" />
            <mxPoint x="265.13157894736844" y="151.90615835777126" as="targetPoint" />
          </mxGeometry>
        </mxCell>
        <mxCell id="P13N5EHRVy5XeqDzWx6y-13" value="w1" style="ellipse;whiteSpace=wrap;html=1;aspect=fixed;fillColor=none;" vertex="1" parent="P13N5EHRVy5XeqDzWx6y-37">
          <mxGeometry x="8.157894736842104" y="228.61876832844575" width="30.381231671554254" height="30.381231671554254" as="geometry" />
        </mxCell>
        <mxCell id="P13N5EHRVy5XeqDzWx6y-14" value="w2" style="ellipse;whiteSpace=wrap;html=1;aspect=fixed;fillColor=none;" vertex="1" parent="P13N5EHRVy5XeqDzWx6y-37">
          <mxGeometry x="73.42105263157895" y="228.61876832844575" width="30.381231671554254" height="30.381231671554254" as="geometry" />
        </mxCell>
        <mxCell id="P13N5EHRVy5XeqDzWx6y-15" value="w3" style="ellipse;whiteSpace=wrap;html=1;aspect=fixed;fillColor=none;" vertex="1" parent="P13N5EHRVy5XeqDzWx6y-37">
          <mxGeometry x="137.46052631578948" y="228.61876832844575" width="30.381231671554254" height="30.381231671554254" as="geometry" />
        </mxCell>
        <mxCell id="P13N5EHRVy5XeqDzWx6y-16" value="wn" style="ellipse;whiteSpace=wrap;html=1;aspect=fixed;fillColor=none;" vertex="1" parent="P13N5EHRVy5XeqDzWx6y-37">
          <mxGeometry x="268.80263157894734" y="228.61876832844575" width="30.381231671554254" height="30.381231671554254" as="geometry" />
        </mxCell>
        <mxCell id="P13N5EHRVy5XeqDzWx6y-20" value="h1" style="rounded=0;whiteSpace=wrap;html=1;" vertex="1" parent="P13N5EHRVy5XeqDzWx6y-37">
          <mxGeometry x="2.8552631578947367" y="23.545454545454547" width="40.78947368421053" height="60.76246334310851" as="geometry" />
        </mxCell>
        <mxCell id="P13N5EHRVy5XeqDzWx6y-21" value="h2" style="rounded=0;whiteSpace=wrap;html=1;" vertex="1" parent="P13N5EHRVy5XeqDzWx6y-37">
          <mxGeometry x="68.11842105263158" y="23.545454545454547" width="40.78947368421053" height="60.76246334310851" as="geometry" />
        </mxCell>
        <mxCell id="P13N5EHRVy5XeqDzWx6y-22" value="h3" style="rounded=0;whiteSpace=wrap;html=1;" vertex="1" parent="P13N5EHRVy5XeqDzWx6y-37">
          <mxGeometry x="133.3815789473684" y="23.545454545454547" width="40.78947368421053" height="60.76246334310851" as="geometry" />
        </mxCell>
        <mxCell id="P13N5EHRVy5XeqDzWx6y-23" value="hn" style="rounded=0;whiteSpace=wrap;html=1;" vertex="1" parent="P13N5EHRVy5XeqDzWx6y-37">
          <mxGeometry x="263.9078947368421" y="23.545454545454547" width="40.78947368421053" height="60.76246334310851" as="geometry" />
        </mxCell>
        <mxCell id="P13N5EHRVy5XeqDzWx6y-24" value="" style="ellipse;whiteSpace=wrap;html=1;aspect=fixed;fillColor=#000000;" vertex="1" parent="P13N5EHRVy5XeqDzWx6y-37">
          <mxGeometry x="209.6578947368421" y="53.16715542521994" width="2.2785923753665687" height="2.2785923753665687" as="geometry" />
        </mxCell>
        <mxCell id="P13N5EHRVy5XeqDzWx6y-25" value="" style="ellipse;whiteSpace=wrap;html=1;aspect=fixed;fillColor=#000000;" vertex="1" parent="P13N5EHRVy5XeqDzWx6y-37">
          <mxGeometry x="218.6315789473684" y="53.16715542521994" width="2.2785923753665687" height="2.2785923753665687" as="geometry" />
        </mxCell>
        <mxCell id="P13N5EHRVy5XeqDzWx6y-26" value="" style="ellipse;whiteSpace=wrap;html=1;aspect=fixed;fillColor=#000000;" vertex="1" parent="P13N5EHRVy5XeqDzWx6y-37">
          <mxGeometry x="227.60526315789474" y="53.16715542521994" width="2.2785923753665687" height="2.2785923753665687" as="geometry" />
        </mxCell>
        <mxCell id="P13N5EHRVy5XeqDzWx6y-27" value="" style="endArrow=classic;html=1;rounded=0;exitX=1;exitY=0.5;exitDx=0;exitDy=0;entryX=0;entryY=0.5;entryDx=0;entryDy=0;" edge="1" parent="P13N5EHRVy5XeqDzWx6y-37">
          <mxGeometry width="50" height="50" relative="1" as="geometry">
            <mxPoint x="67.71052631578947" y="54.686217008797655" as="sourcePoint" />
            <mxPoint x="43.23684210526316" y="54.686217008797655" as="targetPoint" />
          </mxGeometry>
        </mxCell>
        <mxCell id="P13N5EHRVy5XeqDzWx6y-28" value="" style="endArrow=classic;html=1;rounded=0;exitX=1;exitY=0.5;exitDx=0;exitDy=0;entryX=0;entryY=0.5;entryDx=0;entryDy=0;" edge="1" parent="P13N5EHRVy5XeqDzWx6y-37">
          <mxGeometry width="50" height="50" relative="1" as="geometry">
            <mxPoint x="132.9736842105263" y="54.686217008797655" as="sourcePoint" />
            <mxPoint x="108.5" y="54.686217008797655" as="targetPoint" />
          </mxGeometry>
        </mxCell>
        <mxCell id="P13N5EHRVy5XeqDzWx6y-29" value="" style="endArrow=classic;html=1;rounded=0;exitX=1;exitY=0.5;exitDx=0;exitDy=0;" edge="1" parent="P13N5EHRVy5XeqDzWx6y-37">
          <mxGeometry width="50" height="50" relative="1" as="geometry">
            <mxPoint x="198.23684210526315" y="54.686217008797655" as="sourcePoint" />
            <mxPoint x="173.76315789473685" y="54.686217008797655" as="targetPoint" />
          </mxGeometry>
        </mxCell>
        <mxCell id="P13N5EHRVy5XeqDzWx6y-30" value="" style="endArrow=classic;html=1;rounded=0;exitX=1;exitY=0.5;exitDx=0;exitDy=0;entryX=0;entryY=0.5;entryDx=0;entryDy=0;" edge="1" parent="P13N5EHRVy5XeqDzWx6y-37">
          <mxGeometry width="50" height="50" relative="1" as="geometry">
            <mxPoint x="263.5" y="53.9266862170088" as="sourcePoint" />
            <mxPoint x="239.02631578947367" y="53.9266862170088" as="targetPoint" />
          </mxGeometry>
        </mxCell>
        <mxCell id="P13N5EHRVy5XeqDzWx6y-32" value="" style="endArrow=classic;html=1;rounded=0;exitX=0.5;exitY=0;exitDx=0;exitDy=0;entryX=1;entryY=0.5;entryDx=0;entryDy=0;" edge="1" parent="P13N5EHRVy5XeqDzWx6y-37" source="P13N5EHRVy5XeqDzWx6y-13" target="P13N5EHRVy5XeqDzWx6y-12">
          <mxGeometry width="50" height="50" relative="1" as="geometry">
            <mxPoint x="32.63157894736842" y="223.30205278592376" as="sourcePoint" />
            <mxPoint x="73.42105263157895" y="185.32551319648093" as="targetPoint" />
          </mxGeometry>
        </mxCell>
        <mxCell id="P13N5EHRVy5XeqDzWx6y-34" value="" style="endArrow=classic;html=1;rounded=0;exitX=0.5;exitY=0;exitDx=0;exitDy=0;entryX=1;entryY=0.5;entryDx=0;entryDy=0;" edge="1" parent="P13N5EHRVy5XeqDzWx6y-37" source="P13N5EHRVy5XeqDzWx6y-14" target="P13N5EHRVy5XeqDzWx6y-17">
          <mxGeometry width="50" height="50" relative="1" as="geometry">
            <mxPoint x="84.84210526315789" y="229.3782991202346" as="sourcePoint" />
            <mxPoint x="93.8157894736842" y="190.64222873900292" as="targetPoint" />
          </mxGeometry>
        </mxCell>
        <mxCell id="P13N5EHRVy5XeqDzWx6y-35" value="" style="endArrow=classic;html=1;rounded=0;exitX=0.5;exitY=0;exitDx=0;exitDy=0;entryX=1;entryY=0.5;entryDx=0;entryDy=0;" edge="1" parent="P13N5EHRVy5XeqDzWx6y-37" source="P13N5EHRVy5XeqDzWx6y-15" target="P13N5EHRVy5XeqDzWx6y-18">
          <mxGeometry width="50" height="50" relative="1" as="geometry">
            <mxPoint x="218.6315789473684" y="232.41642228739002" as="sourcePoint" />
            <mxPoint x="218.6315789473684" y="193.68035190615836" as="targetPoint" />
          </mxGeometry>
        </mxCell>
        <mxCell id="P13N5EHRVy5XeqDzWx6y-36" value="" style="endArrow=classic;html=1;rounded=0;exitX=0.5;exitY=0;exitDx=0;exitDy=0;entryX=1;entryY=0.5;entryDx=0;entryDy=0;" edge="1" parent="P13N5EHRVy5XeqDzWx6y-37" source="P13N5EHRVy5XeqDzWx6y-16" target="P13N5EHRVy5XeqDzWx6y-19">
          <mxGeometry width="50" height="50" relative="1" as="geometry">
            <mxPoint x="269.6184210526314" y="228.61876832844575" as="sourcePoint" />
            <mxPoint x="269.61842105263173" y="191.4017595307917" as="targetPoint" />
          </mxGeometry>
        </mxCell>
      </root>
    </mxGraphModel>
  </diagram>
</mxfile>
